<svg width="285" height="83" viewBox="0 0 285 83" fill="none" xmlns="http://www.w3.org/2000/svg">
<rect width="21.7449" height="43.4898" transform="matrix(0.708552 0.705659 -0.708552 0.705659 239.37 6.26245)" fill="url(#paint0_linear_446_1040)"/>
<path d="M31.4787 29.4413H24.0565L22.3752 23.7374H9.82719L8.14592 29.4413H1.13379L10.1142 0.508301H22.4982L31.4787 29.4413ZM16.1012 2.57495L11.6725 17.5375H20.5299L16.1012 2.57495Z" fill="white"/>
<path d="M53.2218 29.4413H33.5386V0.508301H40.5097V23.2414H53.2218V29.4413Z" fill="white"/>
<path d="M55.2737 17.7855V0.508301H62.2448V17.7855C62.2448 19.4388 62.7643 20.789 63.8031 21.8361C64.8419 22.8832 66.2361 23.4067 67.9858 23.4067C69.7354 23.4067 71.1296 22.8832 72.1684 21.8361C73.2073 20.789 73.7267 19.4388 73.7267 17.7855V0.508301H80.6978V17.7855C80.6978 21.3125 79.5086 24.2058 77.1302 26.4654C74.7518 28.7249 71.7037 29.8547 67.9858 29.8547C64.2678 29.8547 61.2197 28.7249 58.8413 26.4654C56.4629 24.2058 55.2737 21.3125 55.2737 17.7855Z" fill="white"/>
<path d="M117.202 0.508301V29.4413H110.641V2.61628L106.95 29.4413H94.607L90.9575 2.61628V29.4413H84.3964V0.508301H97.2315L100.881 27.3334L104.572 0.508301H117.202Z" fill="white"/>
<path d="M141.392 27.3334V0.508301H148.363V29.4413H134.872L129.09 2.61628V29.4413H122.119V0.508301H135.61L141.392 27.3334Z" fill="white"/>
<path d="M159.445 29.4413H152.474V0.508301H159.445V29.4413Z" fill="white"/>
<path d="M31.2553 63.9642H23.7463L22.0454 58.2292H9.3507L7.64977 63.9642H0.555664L9.6411 34.8736H22.1699L31.2553 63.9642ZM15.6981 36.9515L11.2176 51.9955H20.1785L15.6981 36.9515Z" fill="white"/>
<path d="M32.5193 56.1929L39.6549 54.7383C40.1528 57.121 41.7292 58.3123 44.3843 58.3123C45.5459 58.3123 46.4863 58.0491 47.2054 57.5227C47.9521 56.9963 48.3255 56.3591 48.3255 55.6111C48.3255 55.0015 48.0489 54.489 47.4958 54.0734C46.9426 53.6578 46.2097 53.3254 45.297 53.076C44.412 52.8267 43.4302 52.5773 42.3515 52.328C41.2729 52.0509 40.1943 51.7046 39.1156 51.289C38.037 50.8734 37.0413 50.3609 36.1286 49.7514C35.2436 49.1418 34.5245 48.2968 33.9713 47.2163C33.4182 46.1358 33.1416 44.8614 33.1416 43.393C33.1416 40.8441 34.2064 38.7246 36.3361 37.0346C38.4657 35.3169 41.0793 34.458 44.1769 34.458C47.3022 34.458 49.8605 35.2061 51.8518 36.7021C53.8708 38.1982 55.0601 40.1792 55.4196 42.6449L48.284 44.0995C48.0628 42.9913 47.5788 42.1185 46.832 41.4813C46.0853 40.8441 45.1173 40.5255 43.928 40.5255C42.877 40.5255 42.0335 40.761 41.3973 41.232C40.7612 41.6753 40.4432 42.2571 40.4432 42.9774C40.4432 43.6423 40.8165 44.1964 41.5633 44.6397C42.31 45.083 43.2504 45.4155 44.3843 45.6371C45.5183 45.8588 46.7352 46.1912 48.0351 46.6345C49.335 47.0778 50.5519 47.5903 51.6859 48.1722C52.8198 48.754 53.7602 49.6683 54.5069 50.915C55.2537 52.1617 55.627 53.6578 55.627 55.4033C55.627 57.9522 54.5208 60.0855 52.3082 61.8032C50.1232 63.5209 47.4128 64.3798 44.1769 64.3798C40.9687 64.3798 38.3136 63.6318 36.2116 62.1357C34.1373 60.6396 32.9065 58.6586 32.5193 56.1929Z" fill="white"/>
<path d="M58.9343 56.1929L66.0699 54.7383C66.5677 57.121 68.1441 58.3123 70.7993 58.3123C71.9609 58.3123 72.9012 58.0491 73.6203 57.5227C74.3671 56.9963 74.7404 56.3591 74.7404 55.6111C74.7404 55.0015 74.4639 54.489 73.9107 54.0734C73.3576 53.6578 72.6246 53.3254 71.712 53.076C70.8269 52.8267 69.8451 52.5773 68.7664 52.328C67.6878 52.0509 66.6092 51.7046 65.5305 51.289C64.4519 50.8734 63.4562 50.3609 62.5435 49.7514C61.6585 49.1418 60.9394 48.2968 60.3863 47.2163C59.8331 46.1358 59.5565 44.8614 59.5565 43.393C59.5565 40.8441 60.6214 38.7246 62.751 37.0346C64.8806 35.3169 67.4942 34.458 70.5918 34.458C73.7171 34.458 76.2754 35.2061 78.2667 36.7021C80.2857 38.1982 81.475 40.1792 81.8345 42.6449L74.6989 44.0995C74.4777 42.9913 73.9937 42.1185 73.2469 41.4813C72.5002 40.8441 71.5322 40.5255 70.3429 40.5255C69.2919 40.5255 68.4484 40.761 67.8123 41.232C67.1761 41.6753 66.8581 42.2571 66.8581 42.9774C66.8581 43.6423 67.2315 44.1964 67.9782 44.6397C68.725 45.083 69.6653 45.4155 70.7993 45.6371C71.9332 45.8588 73.1501 46.1912 74.45 46.6345C75.7499 47.0778 76.9668 47.5903 78.1008 48.1722C79.2347 48.754 80.1751 49.6683 80.9219 50.915C81.6686 52.1617 82.042 53.6578 82.042 55.4033C82.042 57.9522 80.9357 60.0855 78.7231 61.8032C76.5382 63.5209 73.8277 64.3798 70.5918 64.3798C67.3836 64.3798 64.7285 63.6318 62.6265 62.1357C60.5522 60.6396 59.3215 58.6586 58.9343 56.1929Z" fill="white"/>
<path d="M89.1293 60.0578C86.1976 57.1764 84.7318 53.6301 84.7318 49.4189C84.7318 45.2077 86.1976 41.6614 89.1293 38.78C92.0886 35.8987 95.7394 34.458 100.082 34.458C104.424 34.458 108.061 35.8987 110.992 38.78C113.952 41.6614 115.431 45.2077 115.431 49.4189C115.431 53.6301 113.952 57.1764 110.992 60.0578C108.061 62.9391 104.424 64.3798 100.082 64.3798C95.7394 64.3798 92.0886 62.9391 89.1293 60.0578ZM94.3565 43.393C92.8077 45.0276 92.0333 47.0362 92.0333 49.4189C92.0333 51.8016 92.8077 53.8102 94.3565 55.4448C95.9053 57.0794 97.8137 57.8967 100.082 57.8967C102.349 57.8967 104.258 57.0794 105.807 55.4448C107.355 53.8102 108.13 51.8016 108.13 49.4189C108.13 47.0362 107.355 45.0276 105.807 43.393C104.258 41.7584 102.349 40.9411 100.082 40.9411C97.8137 40.9411 95.9053 41.7584 94.3565 43.393Z" fill="white"/>
<path d="M122.31 60.0578C119.378 57.1764 117.912 53.6301 117.912 49.4189C117.912 45.2077 119.378 41.6614 122.31 38.78C125.269 35.8987 128.92 34.458 133.262 34.458C136.498 34.458 139.319 35.2753 141.725 36.9099C144.132 38.5445 145.874 40.5393 146.953 42.8943L140.398 45.3878C139.762 44.0856 138.808 43.019 137.535 42.1878C136.291 41.3566 134.866 40.9411 133.262 40.9411C130.994 40.9411 129.086 41.7584 127.537 43.393C125.988 45.0276 125.214 47.0362 125.214 49.4189C125.214 51.8016 125.988 53.8102 127.537 55.4448C129.086 57.0794 130.994 57.8967 133.262 57.8967C134.866 57.8967 136.291 57.4812 137.535 56.65C138.808 55.8188 139.762 54.7522 140.398 53.45L146.953 55.9435C145.874 58.2985 144.132 60.2933 141.725 61.9279C139.319 63.5625 136.498 64.3798 133.262 64.3798C128.92 64.3798 125.269 62.9391 122.31 60.0578Z" fill="white"/>
<path d="M157.314 63.9642H150.262V34.8736H157.314V63.9642Z" fill="white"/>
<path d="M190.069 63.9642H182.56L180.859 58.2292H168.164L166.463 63.9642H159.369L168.455 34.8736H180.984L190.069 63.9642ZM174.512 36.9515L170.031 51.9955H178.992L174.512 36.9515Z" fill="white"/>
<path d="M202.931 63.9642H195.879V41.1073H187.374V34.8736H211.436V41.1073H202.931V63.9642Z" fill="white"/>
<path d="M220.961 63.9642H213.909V34.8736H220.961V63.9642Z" fill="white"/>
<path d="M228.658 60.0578C225.727 57.1764 224.261 53.6301 224.261 49.4189C224.261 45.2077 225.727 41.6614 228.658 38.78C231.618 35.8987 235.268 34.458 239.611 34.458C243.953 34.458 247.59 35.8987 250.522 38.78C253.481 41.6614 254.961 45.2077 254.961 49.4189C254.961 53.6301 253.481 57.1764 250.522 60.0578C247.59 62.9391 243.953 64.3798 239.611 64.3798C235.268 64.3798 231.618 62.9391 228.658 60.0578ZM233.886 43.393C232.337 45.0276 231.562 47.0362 231.562 49.4189C231.562 51.8016 232.337 53.8102 233.886 55.4448C235.434 57.0794 237.343 57.8967 239.611 57.8967C241.879 57.8967 243.787 57.0794 245.336 55.4448C246.885 53.8102 247.659 51.8016 247.659 49.4189C247.659 47.0362 246.885 45.0276 245.336 43.393C243.787 41.7584 241.879 40.9411 239.611 40.9411C237.343 40.9411 235.434 41.7584 233.886 43.393Z" fill="white"/>
<path d="M277.77 61.8448V34.8736H284.822V63.9642H271.173L265.324 36.993V63.9642H258.271V34.8736H271.92L277.77 61.8448Z" fill="white"/>
<rect width="21.7449" height="43.4897" transform="matrix(0.708551 -0.705659 0.708551 0.705659 224.041 21.6072)" fill="url(#paint1_linear_446_1040)"/>
<path d="M2.77433 82.5631H0.555664L3.84206 70.134H6.06073L2.77433 82.5631Z" fill="url(#paint2_linear_446_1040)"/>
<path d="M12.9378 74.0008V75.7962C13.058 75.345 13.2152 74.9722 13.4093 74.6775C13.6127 74.3737 13.8253 74.1666 14.0472 74.0561C14.2783 73.9456 14.5233 73.8812 14.7821 73.8627C15.041 73.8443 15.2906 73.8904 15.5309 74.0008V76.0724C14.7914 75.7869 14.172 75.7593 13.6728 75.9895C13.1828 76.2105 12.9378 76.6109 12.9378 77.191V81.1821H10.7192V74.0008H12.9378Z" fill="url(#paint3_linear_446_1040)"/>
<path d="M19.55 73.8627C20.798 73.8627 21.7917 74.3139 22.5313 75.2161C23.2709 76.1184 23.5205 77.1772 23.2801 78.3924H18.0524C18.1818 78.7147 18.3898 78.9725 18.6764 79.1658C18.9722 79.3499 19.3096 79.442 19.6886 79.442C20.3635 79.442 20.8673 79.175 21.2001 78.641L23.0028 79.4696C22.6607 80.0312 22.1985 80.4824 21.6161 80.823C21.0337 81.1545 20.3681 81.3202 19.6193 81.3202C18.5192 81.3202 17.5948 80.9657 16.846 80.2568C16.1064 79.5387 15.7366 78.6502 15.7366 77.5915C15.7366 76.5327 16.1018 75.6488 16.8321 74.9399C17.5624 74.2218 18.4684 73.8627 19.55 73.8627ZM19.55 75.7409C19.2264 75.7409 18.9352 75.833 18.6764 76.0171C18.4175 76.192 18.2188 76.4314 18.0801 76.7352H21.0337C20.7656 76.0724 20.271 75.7409 19.55 75.7409Z" fill="url(#paint4_linear_446_1040)"/>
<path d="M24.3405 78.1162V74.0008H26.5591V78.1162C26.5591 78.4753 26.6701 78.7653 26.8919 78.9863C27.123 79.198 27.4281 79.3039 27.8071 79.3039C28.1677 79.3039 28.4635 79.198 28.6946 78.9863C28.935 78.7653 29.0551 78.4753 29.0551 78.1162V74.0008H31.2738V78.1162C31.2738 79.0645 30.9456 79.8379 30.2893 80.4363C29.6422 81.0256 28.8148 81.3202 27.8071 81.3202C26.781 81.3202 25.9444 81.0256 25.2973 80.4363C24.6594 79.8379 24.3405 79.0645 24.3405 78.1162Z" fill="url(#paint5_linear_446_1040)"/>
<path d="M37.2343 73.8627C38.0108 73.8627 38.6302 74.1343 39.0924 74.6775C39.5639 75.2115 39.7996 75.9112 39.7996 76.7767V81.1821H37.581V77.191C37.581 76.7951 37.4562 76.4775 37.2066 76.2381C36.957 75.9895 36.6427 75.8652 36.2636 75.8652C35.8291 75.8652 35.4779 75.9895 35.2098 76.2381C34.9417 76.4775 34.8076 76.7951 34.8076 77.191V81.1821H32.589V74.0008H34.8076V75.7962C35.0018 75.1977 35.3115 74.7282 35.7367 74.3875C36.1619 74.0377 36.6611 73.8627 37.2343 73.8627Z" fill="url(#paint6_linear_446_1040)"/>
<path d="M40.9122 72.0674C40.9122 71.7084 41.0416 71.4 41.3005 71.1422C41.5593 70.8844 41.869 70.7555 42.2295 70.7555C42.5901 70.7555 42.8998 70.8844 43.1586 71.1422C43.4175 71.4 43.5469 71.7084 43.5469 72.0674C43.5469 72.4173 43.4175 72.7257 43.1586 72.9927C42.8998 73.2505 42.5901 73.3794 42.2295 73.3794C41.869 73.3794 41.5593 73.2505 41.3005 72.9927C41.0416 72.7257 40.9122 72.4173 40.9122 72.0674ZM43.3389 81.1821H41.1202V74.0008H43.3389V81.1821Z" fill="url(#paint7_linear_446_1040)"/>
<path d="M45.5543 80.2568C44.8147 79.5387 44.445 78.6502 44.445 77.5915C44.445 76.5327 44.8147 75.6488 45.5543 74.9399C46.3031 74.2218 47.2275 73.8627 48.3276 73.8627C49.4277 73.8627 50.3475 74.2218 51.0871 74.9399C51.8359 75.6488 52.2103 76.5327 52.2103 77.5915C52.2103 78.6502 51.8359 79.5387 51.0871 80.2568C50.3475 80.9657 49.4277 81.3202 48.3276 81.3202C47.2275 81.3202 46.3031 80.9657 45.5543 80.2568ZM47.1906 76.3762C46.8947 76.6984 46.7468 77.1035 46.7468 77.5915C46.7468 78.0794 46.8947 78.4891 47.1906 78.8206C47.4956 79.1428 47.8747 79.3039 48.3276 79.3039C48.7806 79.3039 49.155 79.1428 49.4508 78.8206C49.7559 78.4891 49.9084 78.0794 49.9084 77.5915C49.9084 77.1035 49.7559 76.6984 49.4508 76.3762C49.155 76.0447 48.7806 75.879 48.3276 75.879C47.8747 75.879 47.4956 76.0447 47.1906 76.3762Z" fill="url(#paint8_linear_446_1040)"/>
<path d="M57.9666 73.8627C58.7431 73.8627 59.3625 74.1343 59.8247 74.6775C60.2962 75.2115 60.5319 75.9112 60.5319 76.7767V81.1821H58.3133V77.191C58.3133 76.7951 58.1885 76.4775 57.9389 76.2381C57.6893 75.9895 57.3749 75.8652 56.9959 75.8652C56.5614 75.8652 56.2101 75.9895 55.9421 76.2381C55.674 76.4775 55.5399 76.7951 55.5399 77.191V81.1821H53.3213V74.0008H55.5399V75.7962C55.7341 75.1977 56.0437 74.7282 56.469 74.3875C56.8942 74.0377 57.3934 73.8627 57.9666 73.8627Z" fill="url(#paint9_linear_446_1040)"/>
<defs>
<linearGradient id="paint0_linear_446_1040" x1="10.8724" y1="0" x2="10.8724" y2="43.4898" gradientUnits="userSpaceOnUse">
<stop stop-color="#02AD8E"/>
<stop offset="1" stop-color="#FFEE55"/>
</linearGradient>
<linearGradient id="paint1_linear_446_1040" x1="10.8724" y1="0" x2="10.8724" y2="43.4897" gradientUnits="userSpaceOnUse">
<stop stop-color="#E1FC80"/>
<stop offset="0.46875" stop-color="#74EFF9"/>
<stop offset="1" stop-color="#51B0F3"/>
</linearGradient>
<linearGradient id="paint2_linear_446_1040" x1="1" y1="78.5" x2="65.5" y2="79" gradientUnits="userSpaceOnUse">
<stop stop-color="#E1FC80"/>
<stop offset="0.46875" stop-color="#74EFF9"/>
<stop offset="1" stop-color="#51B0F3"/>
</linearGradient>
<linearGradient id="paint3_linear_446_1040" x1="1" y1="78.5" x2="65.5" y2="79" gradientUnits="userSpaceOnUse">
<stop stop-color="#E1FC80"/>
<stop offset="0.46875" stop-color="#74EFF9"/>
<stop offset="1" stop-color="#51B0F3"/>
</linearGradient>
<linearGradient id="paint4_linear_446_1040" x1="1" y1="78.5" x2="65.5" y2="79" gradientUnits="userSpaceOnUse">
<stop stop-color="#E1FC80"/>
<stop offset="0.46875" stop-color="#74EFF9"/>
<stop offset="1" stop-color="#51B0F3"/>
</linearGradient>
<linearGradient id="paint5_linear_446_1040" x1="1" y1="78.5" x2="65.5" y2="79" gradientUnits="userSpaceOnUse">
<stop stop-color="#E1FC80"/>
<stop offset="0.46875" stop-color="#74EFF9"/>
<stop offset="1" stop-color="#51B0F3"/>
</linearGradient>
<linearGradient id="paint6_linear_446_1040" x1="1" y1="78.5" x2="65.5" y2="79" gradientUnits="userSpaceOnUse">
<stop stop-color="#E1FC80"/>
<stop offset="0.46875" stop-color="#74EFF9"/>
<stop offset="1" stop-color="#51B0F3"/>
</linearGradient>
<linearGradient id="paint7_linear_446_1040" x1="1" y1="78.5" x2="65.5" y2="79" gradientUnits="userSpaceOnUse">
<stop stop-color="#E1FC80"/>
<stop offset="0.46875" stop-color="#74EFF9"/>
<stop offset="1" stop-color="#51B0F3"/>
</linearGradient>
<linearGradient id="paint8_linear_446_1040" x1="1" y1="78.5" x2="65.5" y2="79" gradientUnits="userSpaceOnUse">
<stop stop-color="#E1FC80"/>
<stop offset="0.46875" stop-color="#74EFF9"/>
<stop offset="1" stop-color="#51B0F3"/>
</linearGradient>
<linearGradient id="paint9_linear_446_1040" x1="1" y1="78.5" x2="65.5" y2="79" gradientUnits="userSpaceOnUse">
<stop stop-color="#E1FC80"/>
<stop offset="0.46875" stop-color="#74EFF9"/>
<stop offset="1" stop-color="#51B0F3"/>
</linearGradient>
</defs>
</svg>
