<svg width="18" height="20" viewBox="0 0 18 20" fill="none" xmlns="http://www.w3.org/2000/svg">
<mask id="path-1-inside-1_450_1189" fill="white">
<path d="M9.00025 10C11.7616 10 14.0002 7.76142 14.0002 5C14.0002 2.23858 11.7616 0 9.00025 0C6.23883 0 4.00025 2.23858 4.00025 5C4.00025 7.76142 6.23883 10 9.00025 10ZM17.5901 20C17.5901 16.13 13.7401 13 9.00015 13C4.26016 13 0.410156 16.13 0.410156 20"/>
</mask>
<path d="M9.00025 11.5C12.5901 11.5 15.5002 8.58985 15.5002 5H12.5002C12.5002 6.93299 10.9332 8.5 9.00025 8.5V11.5ZM15.5002 5C15.5002 1.41015 12.5901 -1.5 9.00025 -1.5V1.5C10.9332 1.5 12.5002 3.06701 12.5002 5H15.5002ZM9.00025 -1.5C5.4104 -1.5 2.50025 1.41015 2.50025 5H5.50025C5.50025 3.06701 7.06725 1.5 9.00025 1.5V-1.5ZM2.50025 5C2.50025 8.58985 5.4104 11.5 9.00025 11.5V8.5C7.06725 8.5 5.50025 6.93299 5.50025 5H2.50025ZM19.0901 20C19.0901 15.0283 14.2659 11.5 9.00015 11.5V14.5C13.2144 14.5 16.0901 17.2317 16.0901 20H19.0901ZM9.00015 11.5C3.73441 11.5 -1.08984 15.0283 -1.08984 20H1.91016C1.91016 17.2317 4.78591 14.5 9.00015 14.5V11.5Z" fill="url(#paint0_linear_450_1189)" mask="url(#path-1-inside-1_450_1189)"/>
<defs>
<linearGradient id="paint0_linear_450_1189" x1="0.905848" y1="2.03255" x2="1.23061" y2="5.54331" gradientUnits="userSpaceOnUse">
<stop stop-color="#fff"/>
<stop offset="1" stop-color="#fff"/>
</linearGradient>
</defs>
</svg>
