<svg width="24" height="24" viewBox="0 0 24 24" fill="none" xmlns="http://www.w3.org/2000/svg">
<path d="M12 15.5C14.21 15.5 16 13.71 16 11.5V6C16 3.79 14.21 2 12 2C9.79 2 8 3.79 8 6V11.5C8 13.71 9.79 15.5 12 15.5Z" stroke="white" stroke-width="1.5" stroke-linecap="round" stroke-linejoin="round"/>
<path d="M12.0005 19V22M4.35059 9.6499V11.3499C4.35059 15.5699 7.78059 18.9999 12.0006 18.9999C16.2206 18.9999 19.6506 15.5699 19.6506 11.3499V9.6499H4.35059ZM10.6106 6.43012C11.5106 6.10012 12.4906 6.10012 13.3906 6.43012H10.6106ZM11.2005 8.55007C11.7305 8.41007 12.2805 8.41007 12.8105 8.55007H11.2005Z" stroke="white" stroke-width="1.5" stroke-linecap="round" stroke-linejoin="round"/>
</svg>
